<svg xmlns="http://www.w3.org/2000/svg" version="1.1" xmlns:xlink="http://www.w3.org/1999/xlink" width="200" height="200"><svg xmlns="http://www.w3.org/2000/svg" version="1.1" xmlns:xlink="http://www.w3.org/1999/xlink" viewBox="0 0 200 200"><rect width="200" height="200" fill="url('#gradient')"></rect><defs><linearGradient id="SvgjsLinearGradient1001" gradientTransform="rotate(45 0.5 0.5)"><stop offset="0%" stop-color="#2c3e50"></stop><stop offset="100%" stop-color="#1d425b"></stop></linearGradient></defs><g><g fill="#ff6b6b" transform="matrix(16.427807486631018,0,0,16.427807486631018,8.910819639496609,186.74202253474272)" stroke="#f1eee5" stroke-width="0.2"><path d="M6.04 0.20L6.04 0.20Q3.60 0.20 2.10-1.25Q0.60-2.71 0.60-5.03L0.60-5.03L0.60-5.30Q0.60-6.92 1.20-8.16Q1.80-9.40 2.95-10.08Q4.10-10.76 5.68-10.76L5.68-10.76Q7.91-10.76 9.20-9.38Q10.49-8.00 10.49-5.53L10.49-5.53L10.49-4.25L3.95-4.25Q4.12-3.36 4.72-2.85Q5.31-2.34 6.26-2.34L6.26-2.34Q7.82-2.34 8.70-3.44L8.70-3.44L10.21-1.66Q9.59-0.81 8.46-0.31Q7.33 0.20 6.04 0.20ZM5.66-8.22L5.66-8.22Q4.22-8.22 3.95-6.31L3.95-6.31L7.27-6.31L7.27-6.56Q7.29-7.35 6.87-7.79Q6.45-8.22 5.66-8.22Z"></path></g></g></svg><style>@media (prefers-color-scheme: light) { :root { filter: contrast(1) brightness(1); } }
@media (prefers-color-scheme: dark) { :root { filter: none; } }
</style></svg>